<svg xmlns="http://www.w3.org/2000/svg" viewBox="0 0 1200 600">
  <title>Shop Worked Logo</title>
  <g stroke-miterlimit="10">
    <path d="M626.8 198.9s-.6 14.4 9.3 4.1 19.6-13.1 19.6-13.1-8.8 12.6 5.6 8.4c14.4-4.1 22.8-2.4 22.8-2.4s-10.1 7.3 0 9.7c10.1 2.4 23.3 10.8 23.3 10.8s-11.4 1.1-5 8 14 21.1 14 21.1-9.3-8.4-8 4.3c1.3 12.7 1.5 24.6 1.5 24.6s-6.9-9.3-8.8 0c-1.9 9.3-11 22.8-11 22.8s-1.1-9.7-7.3-5.4c-6.2 4.3-21.5 14.6-21.5 14.6s3.9-9.3-1.9-8.4c-5.8.9-26.4 2.4-26.4 2.4s8.7-10.1-4.8-10.8-19.4-9-19.4-9 13.8-1.5 1.1-12.7-9.9-16.6-9.9-16.6 10.8 4.7 7.3-6.5c-3.4-11.2-1.3-23.5-1.3-23.5s6.2 11.2 11-6 9.8-16.4 9.8-16.4z" fill="#e8ae0c" stroke="#e8ae0c"/>
    <ellipse cx="658" cy="248.1" rx="21.7" ry="22.2" fill="#fff" stroke="#fff"/>
  </g>
  <path d="M187 292.5c-5.2-2.3-9.2-5.5-12-9.6-2.8-4.1-4.2-9-4.2-14.5v-2.2c0-1.5.7-2.2 2.2-2.2h13.9c1.5 0 2.2.6 2.2 1.7v1.8c0 3.5 1.6 6.5 4.8 8.9 3.2 2.4 7.4 3.6 12.6 3.6 4.7 0 8.1-1 10.4-3 2.2-2 3.4-4.4 3.4-7.3 0-2.1-.7-3.9-2.1-5.3-1.4-1.5-3.3-2.7-5.7-3.8-2.4-1.1-6.2-2.6-11.5-4.6-6-2-11-4.1-15.1-6.2-4.1-2.1-7.5-5-10.3-8.7-2.8-3.7-4.2-8.2-4.2-13.5 0-5.3 1.4-9.9 4.1-13.9 2.7-4 6.5-7 11.4-9.1 4.9-2.1 10.5-3.2 16.7-3.2 6.7 0 12.7 1.2 18 3.6s9.4 5.7 12.4 10c2.9 4.3 4.4 9.2 4.4 14.9v1.3c0 1.5-.7 2.2-2.2 2.2h-13.9c-1.5 0-2.2-.4-2.2-1.3v-1.3c0-3.7-1.5-6.8-4.6-9.4-3-2.6-7.2-3.9-12.5-3.9-4.2 0-7.5.9-9.8 2.6-2.3 1.8-3.4 4.2-3.4 7.3 0 2.2.7 4.1 2 5.5 1.3 1.5 3.3 2.9 6 4.1 2.7 1.2 6.8 2.8 12.5 4.8 6.2 2.3 11.1 4.3 14.7 6 3.6 1.7 6.8 4.3 9.7 7.9 2.9 3.5 4.3 8.1 4.3 13.6 0 5.4-1.4 10.1-4.2 14.1-2.8 4.1-6.7 7.2-11.8 9.4-5.1 2.2-11 3.3-17.9 3.3s-12.9-1.3-18.1-3.6zm120.3-90.1h14.1c1.5 0 2.2.7 2.2 2.2v88c0 1.5-.7 2.2-2.2 2.2h-14.1c-1.5 0-2.2-.7-2.2-2.2V257c0-.5-.3-.8-.8-.8h-28.9c-.5 0-.8.3-.8.8v35.7c0 1.5-.7 2.2-2.2 2.2h-14.1c-1.5 0-2.2-.7-2.2-2.2v-88c0-1.5.7-2.2 2.2-2.2h14.1c1.5 0 2.2.7 2.2 2.2v34.7c0 .5.3.8.8.8h28.9c.5 0 .8-.3.8-.8v-34.7c0-1.5.7-2.3 2.2-2.3zm50.3 89.8c-5.2-2.8-9.3-6.8-12.2-11.8-2.9-5.1-4.4-10.9-4.4-17.5v-28.3c0-6.5 1.5-12.3 4.4-17.3 2.9-5 7-8.9 12.2-11.7 5.2-2.8 11.3-4.2 18.2-4.2 7 0 13.1 1.4 18.3 4.2 5.2 2.8 9.3 6.7 12.2 11.7s4.4 10.8 4.4 17.3v28.3c0 6.6-1.5 12.5-4.4 17.6-2.9 5.1-7 9-12.2 11.8-5.2 2.8-11.3 4.2-18.3 4.2-6.9-.1-13-1.5-18.2-4.3zm29.9-16.4c3-3.1 4.5-7.2 4.5-12.3v-29.1c0-5.1-1.5-9.2-4.4-12.4-3-3.1-6.9-4.7-11.8-4.7-4.8 0-8.7 1.6-11.7 4.7s-4.4 7.2-4.4 12.4v29.1c0 5.1 1.5 9.2 4.4 12.3 2.9 3.1 6.8 4.6 11.7 4.6 4.8 0 8.7-1.5 11.7-4.6zm94.9-69.9c4.4 2.4 7.8 5.7 10.2 10.1 2.4 4.4 3.6 9.4 3.6 15 0 5.5-1.3 10.4-3.8 14.7-2.5 4.2-6 7.5-10.6 9.8-4.5 2.3-9.8 3.5-15.7 3.5h-18.6c-.5 0-.8.3-.8.8v32.9c0 1.5-.7 2.2-2.2 2.2h-14.1c-1.5 0-2.2-.7-2.2-2.2v-88.1c0-1.5.7-2.2 2.2-2.2H467c5.8-.1 11 1.1 15.4 3.5zm-8.4 34.7c2.5-2.3 3.7-5.4 3.7-9.2 0-3.9-1.2-7-3.7-9.4-2.5-2.4-5.7-3.6-9.8-3.6h-16.6c-.5 0-.8.3-.8.8v24c0 .5.3.8.8.8h16.6c4.1.1 7.4-1.1 9.8-3.4zm52.9 52.3l-23.3-88c-.1-.2-.1-.4-.1-.7 0-1.2.7-1.8 2.1-1.8h15.1c1.3 0 2.1.7 2.4 2l12.4 52.7c.1.4.3.5.5.5s.4-.2.5-.5l11.9-52.7c.3-1.3 1.1-2 2.4-2h14.9c1.4 0 2.2.7 2.5 2l12.9 52.7c.1.4.2.5.5.5.2 0 .4-.2.5-.5l11.9-52.7c.3-1.3 1.1-2 2.4-2h14.4c.8 0 1.3.2 1.7.7.3.5.4 1.1.2 1.8l-21.3 88c-.3 1.3-1.1 2-2.5 2h-14.5c-1.4 0-2.2-.7-2.5-2l-13.2-56.1c-.1-.4-.3-.5-.5-.5-.3 0-.4.2-.5.5l-12.3 56.1c-.3 1.3-1.1 2-2.4 2h-13.5c-1.5 0-2.4-.6-2.6-2zm230.5.3l-16.2-35.9c-.2-.4-.5-.7-.9-.7h-12c-.5 0-.8.3-.8.8v35.3c0 1.5-.7 2.2-2.2 2.2H711c-1.5 0-2.2-.7-2.2-2.2v-88.1c0-1.5.7-2.2 2.2-2.2h37.1c5.6 0 10.6 1.2 14.9 3.5 4.3 2.3 7.6 5.6 9.9 9.8 2.3 4.2 3.5 9.1 3.5 14.5 0 6-1.5 11.1-4.5 15.5-3 4.3-7.1 7.4-12.4 9.1-.3.1-.4.2-.5.5-.1.2 0 .4.1.6l17.4 36.5c.3.4.4.7.4 1.2 0 .4-.2.8-.5 1.1-.4.3-.8.4-1.5.4H760c-1.1-.2-2-.7-2.6-1.9zm-30-74v22.2c0 .5.3.8.8.8h17.2c3.7 0 6.7-1.1 9-3.2 2.3-2.2 3.5-5 3.5-8.5s-1.2-6.4-3.5-8.7c-2.3-2.2-5.4-3.4-9-3.4h-17.2c-.5 0-.8.3-.8.8zm66.5 73.5v-88c0-1.5.7-2.2 2.2-2.2h14.1c1.5 0 2.2.7 2.2 2.2v36.1c0 .4.1.6.3.7.2.1.4 0 .6-.3l30.1-37.4c.6-.9 1.5-1.3 2.8-1.3h16c.6 0 1.1.1 1.5.3.4.2.5.6.5 1s-.2.8-.7 1.5L834.7 242c-.3.3-.3.6 0 1.1l30.5 49.3c.3.4.4.7.4 1.2 0 1-.6 1.5-1.8 1.5h-16c-1.1 0-2-.5-2.6-1.5L822.1 256c-.1-.3-.3-.4-.5-.4-.3 0-.5.1-.7.4l-8.1 10.3c-.3.4-.4.7-.4.9v25.5c0 1.5-.7 2.2-2.2 2.2h-14.1c-1.5 0-2.2-.7-2.2-2.2zm148.6-74.3H900c-.5 0-.8.3-.8.8v20.2c0 .5.3.8.8.8h27.6c1.5 0 2.2.7 2.2 2.2V254c0 1.5-.7 2.2-2.2 2.2H900c-.5 0-.8.3-.8.8v21.1c0 .5.3.8.8.8h42.5c1.5 0 2.2.7 2.2 2.2v11.5c0 1.5-.8 2.2-2.2 2.2h-59.7c-1.5 0-2.2-.7-2.2-2.2v-88c0-1.5.7-2.2 2.2-2.2h59.7c1.5 0 2.2.7 2.2 2.2v11.5c0 1.6-.7 2.3-2.2 2.3zm19.1 74.3v-88c0-1.5.7-2.2 2.2-2.2h32.4c6.6 0 12.4 1.2 17.4 3.5 5 2.3 8.8 5.6 11.6 9.8 2.7 4.2 4.1 9.1 4.1 14.7V267c0 5.5-1.4 10.4-4.1 14.7-2.7 4.2-6.6 7.5-11.6 9.8-5 2.3-10.8 3.5-17.4 3.5h-32.4c-1.4-.1-2.2-.8-2.2-2.3zm19.5-13.8H997c4 0 7.3-1.4 9.8-4.1 2.5-2.7 3.8-6.4 3.9-11v-30.4c0-4.6-1.3-8.2-3.8-11-2.5-2.7-5.9-4.1-10.1-4.1h-15.7c-.5 0-.8.3-.8.8V278c0 .7.2.9.8.9z" fill="#40321a"/>
  <text transform="translate(192.9 388.714)" font-size="53.926" font-family="Avenir-Roman" fill="#e8ae0c">
    Putting your shop to work for you
  </text>
</svg>
