<svg xmlns="http://www.w3.org/2000/svg" height="239.201" width="1144.752">
  <defs>
    <clipPath id="a">
      <path d="M0 600h1200V0H0z"/>
    </clipPath>
  </defs>
  <g transform="matrix(1.33333 0 0 -1.33333 -227.622 548.065)" clip-path="url(#a)">
    <path d="M626.77 401.13s-.646-14.432 9.262-4.093c9.908 10.338 19.6 13.138 19.6 13.138s-8.831-12.56 5.6-8.434c14.43 4.126 22.83 2.403 22.83 2.403s-10.122-7.323 0-9.692c10.124-2.369 23.263-10.769 23.263-10.769s-11.415-1.077-4.954-7.97c6.462-6.892 14-21.108 14-21.108s-9.261 8.4-7.97-4.308c1.293-12.708 1.509-24.554 1.509-24.554s-6.893 9.262-8.831 0c-1.94-9.26-10.985-22.83-10.985-22.83s-1.077 9.692-7.323 5.384-21.54-14.646-21.54-14.646 3.878 9.261-1.938 8.4c-5.815-.862-26.386-2.369-26.386-2.369s8.724 10.123-4.845 10.77c-13.57.645-19.385 9.045-19.385 9.045s13.785 1.508 1.077 12.708c-12.707 11.2-9.907 16.585-9.907 16.585s10.769-4.739 7.322 6.462c-3.445 11.2-1.292 23.477-1.292 23.477s6.247-11.2 10.985 6.03c4.739 17.231 9.908 16.37 9.908 16.37" fill="#e8ae0c"/>
    <path stroke-miterlimit="10" d="M626.77 401.13s-.646-14.432 9.262-4.093c9.908 10.338 19.6 13.138 19.6 13.138s-8.831-12.56 5.6-8.434c14.43 4.126 22.83 2.403 22.83 2.403s-10.122-7.323 0-9.692c10.124-2.369 23.263-10.769 23.263-10.769s-11.415-1.077-4.954-7.97c6.462-6.892 14-21.108 14-21.108s-9.261 8.4-7.97-4.308c1.293-12.708 1.509-24.554 1.509-24.554s-6.893 9.262-8.831 0c-1.94-9.26-10.985-22.83-10.985-22.83s-1.077 9.692-7.323 5.384-21.54-14.646-21.54-14.646 3.878 9.261-1.938 8.4c-5.815-.862-26.386-2.369-26.386-2.369s8.724 10.123-4.845 10.77c-13.57.645-19.385 9.045-19.385 9.045s13.785 1.508 1.077 12.708c-12.707 11.2-9.907 16.585-9.907 16.585s10.769-4.739 7.322 6.462c-3.445 11.2-1.292 23.477-1.292 23.477s6.247-11.2 10.985 6.03c4.739 17.231 9.908 16.37 9.908 16.37z" fill="none" stroke="#e8ae0c"/>
    <path d="M679.723 351.914c0-12.283-9.735-22.24-21.745-22.24-12.01 0-21.745 9.957-21.745 22.24 0 12.282 9.735 22.239 21.745 22.239 12.01 0 21.745-9.957 21.745-22.24" fill="#fff"/>
    <path stroke-miterlimit="10" d="M679.723 351.914c0-12.283-9.735-22.24-21.745-22.24-12.01 0-21.745 9.957-21.745 22.24 0 12.282 9.735 22.239 21.745 22.239 12.01 0 21.745-9.957 21.745-22.24z" fill="none" stroke="#fff"/>
    <path d="M186.967 307.453c-5.198 2.29-9.204 5.503-12.022 9.645-2.82 4.138-4.228 8.983-4.228 14.531v2.246c0 1.497.748 2.246 2.247 2.246h13.871c1.496 0 2.246-.574 2.246-1.718v-1.849c0-3.524 1.606-6.497 4.822-8.917 3.213-2.424 7.418-3.633 12.616-3.633 4.667 0 8.125.99 10.37 2.972 2.246 1.982 3.37 4.425 3.37 7.332 0 2.114-.707 3.897-2.114 5.35-1.41 1.453-3.303 2.73-5.68 3.831-2.379 1.101-6.21 2.62-11.495 4.56-5.99 2.024-11.01 4.094-15.06 6.208-4.052 2.113-7.487 4.997-10.304 8.653-2.82 3.653-4.228 8.168-4.228 13.541 0 5.284 1.364 9.908 4.095 13.871 2.73 3.964 6.54 7.002 11.428 9.116 4.888 2.114 10.457 3.17 16.712 3.17 6.692 0 12.682-1.189 17.966-3.567 5.284-2.378 9.401-5.703 12.352-9.974 2.95-4.273 4.426-9.227 4.426-14.862v-1.32c0-1.5-.749-2.247-2.246-2.247h-13.87c-1.5 0-2.247.44-2.247 1.321v1.321c0 3.7-1.519 6.847-4.558 9.446-3.038 2.597-7.199 3.897-12.484 3.897-4.227 0-7.487-.88-9.776-2.642-2.29-1.763-3.435-4.184-3.435-7.266 0-2.202.661-4.052 1.982-5.549 1.321-1.498 3.323-2.862 6.011-4.095 2.685-1.234 6.847-2.82 12.484-4.756 6.164-2.29 11.052-4.293 14.664-6.01 3.61-1.718 6.847-4.34 9.71-7.86 2.861-3.525 4.293-8.06 4.293-13.608 0-5.373-1.387-10.086-4.16-14.136-2.775-4.052-6.695-7.18-11.758-9.38-5.066-2.202-11.032-3.303-17.9-3.303-6.87 0-12.905 1.144-18.1 3.435m120.35 90.099h14.136c1.496 0 2.245-.75 2.245-2.246v-87.984c0-1.5-.749-2.247-2.245-2.247h-14.136c-1.499 0-2.246.748-2.246 2.247v35.669c0 .528-.264.793-.793.793h-28.93c-.53 0-.794-.265-.794-.793v-35.67c0-1.498-.749-2.246-2.246-2.246h-14.135c-1.499 0-2.246.748-2.246 2.247v87.984c0 1.496.747 2.246 2.246 2.246h14.135c1.497 0 2.246-.75 2.246-2.246V360.56c0-.528.264-.792.793-.792h28.931c.53 0 .793.264.793.792v34.745c0 1.496.747 2.246 2.246 2.246m80.189-73.32c2.993 3.082 4.492 7.177 4.492 12.286v29.064c0 5.107-1.476 9.225-4.426 12.352-2.952 3.125-6.893 4.69-11.824 4.69-4.845 0-8.742-1.565-11.691-4.69-2.952-3.127-4.426-7.245-4.426-12.352v-29.064c0-5.109 1.474-9.204 4.426-12.286 2.949-3.084 6.846-4.624 11.69-4.624 4.844 0 8.764 1.54 11.759 4.624m-29.923-16.382c-5.241 2.818-9.313 6.758-12.22 11.824-2.906 5.064-4.36 10.9-4.36 17.504v28.272c0 6.516 1.454 12.286 4.36 17.306 2.907 5.02 6.979 8.917 12.22 11.692 5.239 2.774 11.296 4.161 18.165 4.161 6.957 0 13.056-1.387 18.297-4.16 5.239-2.776 9.314-6.673 12.22-11.693 2.907-5.02 4.36-10.79 4.36-17.306v-28.272c0-6.605-1.453-12.464-4.36-17.57-2.906-5.109-6.981-9.05-12.22-11.824-5.241-2.774-11.34-4.16-18.297-4.16-6.87 0-12.926 1.41-18.165 4.226m116.452 51.589c2.464 2.333 3.7 5.394 3.7 9.181 0 3.875-1.236 7.002-3.7 9.38-2.467 2.378-5.726 3.567-9.776 3.567h-16.646c-.528 0-.792-.264-.792-.793V356.73c0-.529.264-.793.792-.793h16.646c4.05 0 7.31 1.166 9.776 3.501m8.323 34.678c4.403-2.378 7.815-5.746 10.238-10.106 2.421-4.36 3.633-9.359 3.633-14.994 0-5.549-1.255-10.437-3.765-14.664-2.51-4.228-6.033-7.51-10.569-9.842-4.537-2.336-9.755-3.502-15.654-3.502h-18.628c-.528 0-.792-.263-.792-.793v-32.894c0-1.499-.75-2.246-2.246-2.246H430.44c-1.498 0-2.246.747-2.246 2.246v88.117c0 1.496.748 2.245 2.246 2.245h36.594c5.813 0 10.92-1.189 15.325-3.567m44.518-87.059l-23.251 87.985c-.089.175-.132.396-.132.66 0 1.233.704 1.85 2.113 1.85h15.061c1.321 0 2.114-.661 2.378-1.982l12.418-52.711c.087-.353.264-.53.528-.53s.44.177.529.53l11.89 52.71c.264 1.322 1.056 1.983 2.378 1.983h14.928c1.408 0 2.245-.661 2.51-1.982l12.946-52.711c.087-.353.242-.53.463-.53.219 0 .373.177.462.53l11.889 52.71c.265 1.322 1.058 1.983 2.378 1.983h14.401c.793 0 1.341-.244 1.651-.726.308-.486.373-1.08.198-1.784l-21.269-87.985c-.265-1.32-1.103-1.981-2.51-1.981h-14.532c-1.41 0-2.246.66-2.51 1.98l-13.211 56.148c-.089.35-.264.528-.528.528-.265 0-.442-.177-.529-.528l-12.286-56.147c-.264-1.32-1.057-1.981-2.378-1.981h-13.475c-1.41 0-2.246.66-2.51 1.98m200.538 73.718V358.58c0-.53.265-.793.793-.793h17.174c3.699 0 6.715 1.077 9.05 3.237 2.332 2.157 3.501 4.997 3.501 8.52 0 3.522-1.169 6.408-3.501 8.654-2.335 2.245-5.351 3.368-9.05 3.368h-17.174c-.528 0-.793-.264-.793-.792m29.989-73.981l-16.25 35.934c-.176.439-.484.66-.925.66h-12.021c-.528 0-.793-.264-.793-.793V307.32c0-1.5-.749-2.246-2.245-2.246h-14.136c-1.499 0-2.246.747-2.246 2.246v88.117c0 1.497.747 2.246 2.246 2.246h37.122c5.636 0 10.59-1.17 14.863-3.501 4.27-2.335 7.573-5.615 9.908-9.842 2.333-4.228 3.501-9.072 3.501-14.532 0-5.991-1.499-11.142-4.492-15.457-2.996-4.316-7.134-7.354-12.418-9.115-.264-.09-.442-.244-.529-.463-.089-.221-.045-.418.132-.594l17.439-36.462a1.94 1.94 0 0 0 .396-1.19c0-.441-.178-.792-.528-1.056-.354-.264-.838-.397-1.453-.397h-14.929c-1.146 0-2.027.573-2.642 1.718m36.462.529v87.984c0 1.497.747 2.246 2.246 2.246h14.136c1.496 0 2.245-.749 2.245-2.246V359.24c0-.353.11-.574.331-.66.22-.09.417 0 .594.263l30.121 37.387c.615.88 1.54 1.321 2.774 1.321H862.3c.614 0 1.1-.11 1.453-.33.35-.22.528-.55.528-.99 0-.354-.22-.839-.66-1.454l-28.8-36.726c-.265-.264-.265-.617 0-1.057l30.517-49.277c.264-.353.396-.749.396-1.189 0-.97-.617-1.453-1.849-1.453h-15.986c-1.145 0-2.027.483-2.64 1.453l-23.12 37.52c-.089.264-.265.396-.529.396s-.485-.132-.66-.396l-8.06-10.305c-.263-.354-.396-.66-.396-.925v-25.497c0-1.499-.749-2.246-2.245-2.246h-14.136c-1.499 0-2.246.747-2.246 2.246m148.62 74.245h-42.539c-.528 0-.793-.264-.793-.792v-20.213c0-.529.265-.793.793-.793h27.61c1.497 0 2.246-.749 2.246-2.245V346.03c0-1.499-.749-2.246-2.246-2.246h-27.61c-.528 0-.793-.264-.793-.793v-21.137c0-.528.265-.793.793-.793h42.54c1.495 0 2.245-.749 2.245-2.246v-11.493c0-1.499-.75-2.246-2.246-2.246h-59.713c-1.499 0-2.246.747-2.246 2.246v87.984c0 1.497.747 2.246 2.246 2.246h59.713c1.496 0 2.246-.749 2.246-2.246v-11.493c0-1.499-.75-2.246-2.246-2.246m38.576-60.507h15.854c4.049 0 7.332 1.364 9.84 4.096 2.51 2.728 3.81 6.383 3.899 10.965v30.384c0 4.58-1.256 8.235-3.766 10.966-2.51 2.73-5.88 4.095-10.106 4.095h-15.721c-.528 0-.793-.263-.793-.792v-58.92c0-.528.265-.793.793-.793m-19.42-13.74v87.984c0 1.497.747 2.246 2.246 2.246h32.366c6.606 0 12.396-1.168 17.372-3.5 4.975-2.334 8.83-5.615 11.56-9.842 2.73-4.228 4.096-9.115 4.096-14.664v-36.463c0-5.547-1.366-10.436-4.096-14.664-2.73-4.226-6.585-7.508-11.56-9.841-4.976-2.334-10.766-3.501-17.372-3.501h-32.366c-1.5 0-2.246.747-2.246 2.246" fill="#40321a"/>
  </g>
  <path d="M70.795 187.873q0 3.475-1.23 6.46-1.193 2.949-3.37 5.125-2.703 2.704-6.39 4.073-3.685 1.334-9.303 1.334h-6.951v19.485h-6.952v-52.276h14.184q4.705 0 7.97.808 3.265.772 5.792 2.457 2.985 2.001 4.6 4.985 1.65 2.985 1.65 7.549zm-7.233.175q0-2.703-.947-4.704-.948-2.001-2.88-3.265-1.685-1.089-3.861-1.545-2.142-.492-5.442-.492h-6.881v20.89h5.863q4.213 0 6.846-.738 2.633-.772 4.283-2.422 1.65-1.685 2.317-3.546.702-1.86.702-4.178zm47.658 36.302h-6.6v-4.353q-3.335 2.633-6.39 4.037-3.054 1.404-6.74 1.404-6.18 0-9.62-3.756-3.44-3.792-3.44-11.094v-25.454h6.6v22.329q0 2.984.28 5.126.281 2.106 1.194 3.616.948 1.545 2.458 2.247 1.51.702 4.388.702 2.563 0 5.582-1.334 3.055-1.334 5.688-3.406v-29.28h6.6v39.216zm27.83-.351q-1.86.491-4.073.807-2.176.316-3.897.316-6.003 0-9.128-3.23-3.124-3.23-3.124-10.357v-20.854h-4.46v-5.547h4.46v-11.27h6.6v11.27h13.622v5.547h-13.622v17.87q0 3.09.14 4.845.14 1.72.983 3.23.773 1.404 2.107 2.072 1.369.631 4.143.631 1.615 0 3.37-.456 1.755-.491 2.528-.807h.35v5.933zm25.38 0q-1.86.491-4.072.807-2.176.316-3.897.316-6.003 0-9.128-3.23-3.124-3.23-3.124-10.357v-20.854h-4.46v-5.547h4.46v-11.27h6.6v11.27h13.622v5.547h-13.622v17.87q0 3.09.14 4.845.14 1.72.983 3.23.773 1.404 2.107 2.072 1.37.631 4.143.631 1.615 0 3.37-.456 1.755-.491 2.528-.807h.35v5.933zm12.111-45.429h-7.443v-6.847h7.443v6.846zm-.421 45.78h-6.6v-39.216h6.6v39.216zm43.376 0h-6.6v-22.33q0-2.703-.316-5.055-.316-2.388-1.158-3.722-.878-1.474-2.528-2.176-1.65-.738-4.283-.738-2.704 0-5.653 1.334-2.949 1.334-5.652 3.406v29.28h-6.6v-39.216h6.6v4.354q3.09-2.563 6.39-4.003t6.775-1.44q6.355 0 9.69 3.828 3.335 3.826 3.335 11.024v25.453zm38.994-4.459q0 9.97-4.529 14.64t-13.937 4.67q-3.125 0-6.11-.457-2.948-.421-5.827-1.229v-6.74h.35q1.616.632 5.127 1.544 3.51.948 7.021.948 3.37 0 5.582-.807 2.212-.808 3.441-2.247 1.229-1.37 1.755-3.3.527-1.931.527-4.318v-3.582q-2.984 2.388-5.723 3.582-2.703 1.158-6.916 1.158-7.021 0-11.164-5.055-4.108-5.091-4.108-14.325 0-5.055 1.404-8.706 1.44-3.687 3.897-6.355 2.283-2.493 5.548-3.862 3.265-1.404 6.495-1.404 3.405 0 5.687.702 2.317.667 4.88 2.071l.421-1.685h6.18v34.757zm-6.6-6.32v-21.38q-2.633-1.194-4.915-1.685-2.247-.527-4.494-.527-5.442 0-8.566 3.651-3.125 3.652-3.125 10.603 0 6.6 2.317 10.006 2.317 3.405 7.689 3.405 2.879 0 5.758-1.088 2.914-1.124 5.336-2.984zm72.627-28.437l-22.89 53.68h-7.057l7.302-16.36-15.623-37.32h7.162l12.042 29.07 12.148-29.07h6.916zm34.165 19.626q0 9.584-4.916 15.131-4.915 5.547-13.165 5.547-8.32 0-13.236-5.547-4.88-5.547-4.88-15.131 0-9.585 4.88-15.132 4.915-5.582 13.236-5.582 8.25 0 13.165 5.582 4.916 5.547 4.916 15.132zm-6.811 0q0-7.619-2.985-11.305-2.984-3.722-8.285-3.722-5.372 0-8.356 3.722-2.949 3.686-2.949 11.305 0 7.372 2.984 11.2 2.985 3.79 8.321 3.79 5.266 0 8.25-3.756 3.02-3.791 3.02-11.234zm48.607 19.59h-6.6v-4.353q-3.336 2.633-6.39 4.037t-6.74 1.404q-6.18 0-9.62-3.756-3.44-3.792-3.44-11.094v-25.454h6.6v22.329q0 2.984.28 5.126.281 2.106 1.194 3.616.948 1.545 2.458 2.247 1.51.702 4.388.702 2.563 0 5.582-1.334 3.055-1.334 5.688-3.406v-29.28h6.6v39.216zm31.937-32.019h-.35q-1.475-.35-2.88-.491-1.369-.176-3.265-.176-3.054 0-5.898 1.37-2.844 1.334-5.477 3.475v27.84h-6.6v-39.215h6.6v5.793q3.932-3.16 6.917-4.459 3.019-1.334 6.143-1.334 1.72 0 2.493.106.772.07 2.317.316v6.775zm48.844 20.714q0 5.372-4.459 8.812-4.424 3.44-12.112 3.44-4.354 0-8.005-1.017-3.616-1.054-6.073-2.282v-7.408h.35q3.125 2.352 6.952 3.756 3.827 1.37 7.338 1.37 4.353 0 6.81-1.405 2.458-1.404 2.458-4.423 0-2.317-1.334-3.511t-5.126-2.036q-1.404-.316-3.686-.738-2.247-.42-4.108-.912-5.16-1.37-7.337-4.003-2.142-2.668-2.142-6.53 0-2.422.983-4.564 1.018-2.141 3.054-3.827 1.967-1.65 4.986-2.598 3.054-.983 6.81-.983 3.512 0 7.093.878 3.616.843 6.003 2.071v7.057h-.351q-2.528-1.86-6.144-3.124-3.616-1.3-7.092-1.3-3.616 0-6.109 1.405-2.492 1.37-2.492 4.107 0 2.423 1.51 3.652 1.474 1.228 4.774 2 1.826.422 4.073.843 2.282.422 3.791.773 4.6 1.053 7.092 3.616 2.493 2.598 2.493 6.881zm35.404 11.305h-6.6v-22.33q0-2.703-.316-5.055-.316-2.388-1.159-3.722-.877-1.474-2.527-2.176-1.65-.738-4.284-.738-2.703 0-5.652 1.334-2.949 1.334-5.652 3.406v29.28h-6.6v-54.628h6.6v19.766q3.09-2.563 6.39-4.003t6.775-1.44q6.355 0 9.69 3.828 3.335 3.826 3.335 11.024v25.453zm40.609-19.59q0 9.584-4.915 15.131-4.915 5.547-13.165 5.547-8.321 0-13.236-5.547-4.88-5.547-4.88-15.131 0-9.585 4.88-15.132 4.915-5.582 13.236-5.582 8.25 0 13.165 5.582 4.915 5.547 4.915 15.132zm-6.81 0q0-7.619-2.985-11.305-2.984-3.722-8.285-3.722-5.372 0-8.356 3.722-2.95 3.686-2.95 11.305 0 7.372 2.985 11.2 2.984 3.79 8.32 3.79 5.267 0 8.251-3.756 3.02-3.791 3.02-11.234zm50.608-.492q0 4.775-1.37 8.742-1.369 3.932-3.861 6.67-2.317 2.599-5.477 4.038-3.125 1.404-6.636 1.404-3.054 0-5.547-.667-2.457-.667-5.02-2.071v16.43h-6.6v-53.68h6.6v4.108q2.633-2.212 5.898-3.686 3.3-1.51 7.022-1.51 7.091 0 11.024 5.371 3.967 5.337 3.967 14.851zm-6.811.176q0-7.092-2.423-10.603-2.422-3.51-7.443-3.51-2.843 0-5.722 1.228-2.879 1.229-5.512 3.23v22.223q2.809 1.264 4.81 1.72 2.036.457 4.599.457 5.512 0 8.601-3.721 3.09-3.722 3.09-11.024zm56.582 19.555q-1.86.491-4.072.807-2.177.316-3.897.316-6.004 0-9.128-3.23-3.125-3.23-3.125-10.357v-20.854h-4.459v-5.547h4.46v-11.27h6.6v11.27h13.621v5.547H637.22v17.87q0 3.09.14 4.845.141 1.72.984 3.23.772 1.404 2.106 2.072 1.37.631 4.143.631 1.615 0 3.37-.456 1.756-.491 2.528-.807h.351v5.933zm38.369-19.239q0 9.584-4.915 15.131-4.915 5.547-13.165 5.547-8.32 0-13.236-5.547-4.88-5.547-4.88-15.131 0-9.585 4.88-15.132 4.915-5.582 13.236-5.582 8.25 0 13.165 5.582 4.916 5.547 4.916 15.132zm-6.81 0q0-7.619-2.985-11.305-2.984-3.722-8.285-3.722-5.372 0-8.356 3.722-2.949 3.686-2.949 11.305 0 7.372 2.984 11.2 2.985 3.79 8.32 3.79 5.267 0 8.251-3.756 3.02-3.791 3.02-11.234zm85.412-19.626l-10.216 39.216h-6.109l-10.076-30.228-10.006 30.228h-6.073l-10.322-39.216h6.881l7.197 30.369 9.795-30.369h5.442l10.04 30.369 6.812-30.369h6.635zm37.375 19.626q0 9.584-4.915 15.131-4.915 5.547-13.166 5.547-8.32 0-13.235-5.547-4.88-5.547-4.88-15.131 0-9.585 4.88-15.132 4.915-5.582 13.235-5.582 8.25 0 13.166 5.582 4.915 5.547 4.915 15.132zm-6.811 0q0-7.619-2.984-11.305-2.984-3.722-8.286-3.722-5.371 0-8.355 3.722-2.95 3.686-2.95 11.305 0 7.372 2.985 11.2 2.984 3.79 8.32 3.79 5.267 0 8.25-3.756 3.02-3.791 3.02-11.234zm40.568-12.429h-.351q-1.475-.35-2.88-.491-1.369-.176-3.264-.176-3.055 0-5.898 1.37-2.844 1.334-5.477 3.475v27.84h-6.6v-39.215h6.6v5.793q3.932-3.16 6.916-4.459 3.02-1.334 6.144-1.334 1.72 0 2.492.106.773.07 2.318.316v6.775zm36.438 32.019h-8.707l-15.728-17.168-4.283 4.073v13.095h-6.6v-54.628h6.6v35.038l19.063-19.626h8.32l-18.22 18.116 19.555 21.1zm41.439-48.238h-.35q-1.09-.316-2.844-.632-1.756-.351-3.09-.351-4.248 0-6.179 1.895-1.896 1.861-1.896 6.776v1.334h11.902v5.547h-11.691v33.669h-6.6v-33.67h-4.46v-5.547h4.46v-1.299q0-6.986 3.475-10.708 3.476-3.756 10.041-3.756 2.212 0 3.967.21 1.79.211 3.265.492v6.039zm34.972 28.648q0 9.584-4.915 15.131-4.915 5.547-13.165 5.547-8.321 0-13.236-5.547-4.88-5.547-4.88-15.131 0-9.585 4.88-15.132 4.915-5.582 13.236-5.582 8.25 0 13.165 5.582 4.915 5.547 4.915 15.132zm-6.81 0q0-7.619-2.985-11.305-2.984-3.722-8.285-3.722-5.372 0-8.356 3.722-2.95 3.686-2.95 11.305 0 7.372 2.985 11.2 2.984 3.79 8.32 3.79 5.267 0 8.25-3.756 3.02-3.791 3.02-11.234zm40.567-12.429h-.351q-1.475-.35-2.88-.491-1.368-.176-3.264-.176-3.055 0-5.898 1.37-2.844 1.334-5.477 3.475v27.84h-6.6v-39.215h6.6v5.793q3.932-3.16 6.916-4.459 3.02-1.334 6.144-1.334 1.72 0 2.493.106.772.07 2.317.316v6.775zm54.741-7.197l-22.89 53.68h-7.057l7.303-16.36-15.623-37.32h7.162l12.042 29.07 12.147-29.07h6.916zm34.165 19.626q0 9.584-4.915 15.131-4.915 5.547-13.165 5.547-8.321 0-13.236-5.547-4.88-5.547-4.88-15.131 0-9.585 4.88-15.132 4.915-5.582 13.236-5.582 8.25 0 13.165 5.582 4.915 5.547 4.915 15.132zm-6.81 0q0-7.619-2.985-11.305-2.984-3.722-8.285-3.722-5.372 0-8.356 3.722-2.95 3.686-2.95 11.305 0 7.372 2.985 11.2 2.984 3.79 8.32 3.79 5.267 0 8.251-3.756 3.02-3.791 3.02-11.234zm48.607 19.59h-6.6v-4.353q-3.336 2.633-6.39 4.037-3.055 1.404-6.741 1.404-6.18 0-9.62-3.756-3.44-3.792-3.44-11.094v-25.454h6.6v22.329q0 2.984.28 5.126.282 2.106 1.195 3.616.948 1.545 2.457 2.247 1.51.702 4.389.702 2.563 0 5.582-1.334 3.054-1.334 5.687-3.406v-29.28h6.6v39.216z" font-weight="400" font-size="53.926" font-family="Avenir" fill="#e8ae0c"/>
</svg>
